<?xml version="1.0" encoding="UTF-8" standalone="no"?>
<!-- Created with Inkscape (http://www.inkscape.org/) -->

<svg
   width="94.987434mm"
   height="88.884254mm"
   viewBox="0 0 94.987434 88.884254"
   version="1.1"
   id="svg1"
   xml:space="preserve"
   inkscape:export-filename="bitmap.svg"
   inkscape:export-xdpi="96"
   inkscape:export-ydpi="96"
   inkscape:version="1.4.2 (f4327f4, 2025-05-13)"
   sodipodi:docname="dibujo.svg"
   xmlns:inkscape="http://www.inkscape.org/namespaces/inkscape"
   xmlns:sodipodi="http://sodipodi.sourceforge.net/DTD/sodipodi-0.dtd"
   xmlns="http://www.w3.org/2000/svg"
   xmlns:svg="http://www.w3.org/2000/svg"><sodipodi:namedview
     id="namedview1"
     pagecolor="#ffffff"
     bordercolor="#000000"
     borderopacity="0.25"
     inkscape:showpageshadow="2"
     inkscape:pageopacity="0.0"
     inkscape:pagecheckerboard="0"
     inkscape:deskcolor="#d1d1d1"
     inkscape:document-units="mm"
     inkscape:zoom="0.99868365"
     inkscape:cx="388.51142"
     inkscape:cy="618.31391"
     inkscape:window-width="1920"
     inkscape:window-height="991"
     inkscape:window-x="-9"
     inkscape:window-y="-9"
     inkscape:window-maximized="1"
     inkscape:current-layer="layer1"><inkscape:page
       x="0"
       y="0"
       width="94.987434"
       height="88.884254"
       id="page2"
       margin="0"
       bleed="0" /></sodipodi:namedview><defs
     id="defs1" /><g
     inkscape:label="Capa 1"
     inkscape:groupmode="layer"
     id="layer1"
     transform="translate(-57.506281,-104.05787)"><path
       style="fill:#90794e"
       d="m 67.860574,192.81068 c -2.868481,-0.0588 -5.736961,-0.11759 -8.605442,-0.1764 -1.190888,-1.15974 -1.667989,-2.55817 -1.400222,-4.20565 -0.11621,-26.7177 -0.232419,-53.43541 -0.348629,-80.15311 0.613567,-1.52814 1.622997,-3.29184 3.550364,-2.95373 7.1353,0.0713 14.299612,-0.14127 21.416997,0.1053 2.75192,0.51558 5.52048,0.98334 7.91152,2.53522 2.23648,0.91605 3.85866,2.77994 5.773,4.19305 5.529248,-3.42774 11.495078,-6.33155 17.964288,-7.40307 4.19333,-1.18537 8.59874,-0.44414 12.89856,-0.66213 3.19112,0.0205 6.3276,1.0069 9.38965,1.8491 4.05031,1.04594 7.73421,3.09321 11.3848,5.06415 1.77548,1.44893 4.69176,2.54896 4.34139,5.30743 -0.15347,1.262 -1.32647,2.66958 -2.74114,2.53164 -1.64002,0.32095 -2.81317,-1.49293 -4.24975,-2.1022 -3.05379,-2.03762 -6.33128,-3.69635 -9.84861,-4.74302 -2.42154,-1.05722 -4.93419,-1.72496 -7.58456,-1.804 -3.78761,-0.62355 -7.63872,-0.0827 -11.42793,0.17074 -3.05122,0.99914 -6.357,1.14032 -9.11989,2.93108 -2.44401,1.46414 -5.56574,2.02637 -7.347118,4.37232 1.600158,3.15901 2.523378,6.66263 2.214788,10.21502 -0.0318,3.45582 -1.17089,6.85777 -2.696258,9.9349 -1.36212,2.37357 -3.21861,4.34913 -5.15554,6.25992 1.9331,1.55057 4.64892,2.06476 6.505268,3.84793 2.39865,1.68592 4.45237,3.90961 6.19585,6.2327 1.53126,2.49469 2.83646,5.08388 3.42922,7.97088 0.95887,2.72778 0.47315,5.70051 0.60098,8.53772 -0.42409,4.23423 -2.16595,8.20412 -4.49608,11.72849 -0.4762,1.67921 2.27703,1.47873 3.32515,2.12648 3.92176,1.4289 8.03374,2.25198 12.21471,2.21093 3.8672,0.38893 7.68337,-0.7044 11.462,-1.40869 5.39783,-1.4097 10.24246,-4.33798 14.66203,-7.68128 1.73617,-0.267 3.19024,0.0724 4.03419,1.72335 0.80161,1.07543 0.26206,3.10933 -0.94955,3.81005 -3.56708,3.05437 -7.90459,4.92136 -12.15494,6.80381 -4.17092,0.98656 -8.20614,2.79924 -12.5599,2.6727 -4.41168,0.52747 -8.81855,-0.16578 -13.19091,-0.68475 -4.11545,-1.24494 -8.27614,-2.37067 -12.09834,-4.38833 -1.801988,1.80492 -4.231258,2.85148 -6.498228,3.92697 -2.54874,0.93283 -5.18995,1.26348 -7.89524,1.17674 -6.30501,0.24345 -12.598732,0.37275 -18.906478,0.12774 z m 23.519758,-6.8754 c 2.78537,-0.57948 5.11944,-2.2917 7.31663,-3.99483 2.188348,-2.0319 3.853328,-4.60327 4.999968,-7.33294 0.72377,-2.30987 1.58271,-4.60305 1.12448,-7.05867 -0.10908,-2.32207 0.10436,-4.72725 -1.34944,-6.70285 -1.01772,-2.05225 -1.82174,-4.26093 -3.769618,-5.63233 -2.4164,-2.26375 -4.70525,-5.20374 -8.28021,-5.43295 -4.46862,-1.25269 -9.14766,-0.50189 -13.726257,-0.70748 -4.584493,-0.002 -9.168987,-0.005 -13.75348,-0.007 -0.154196,12.5819 -0.01454,25.16486 10e-5,37.74721 8.297972,-0.0527 16.628377,0.10481 24.906227,-0.0784 0.84386,-0.26661 1.68773,-0.53321 2.5316,-0.7998 z m -8.16077,-43.55885 c 2.42877,-0.11683 4.6519,-1.39673 6.62552,-2.67753 1.87905,-1.89534 3.93407,-3.66406 4.84496,-6.2561 1.0334,-2.42481 1.59475,-5.00413 1.35514,-7.6482 -0.27938,-2.8899 -1.45065,-5.72983 -2.98414,-8.17638 -1.96747,-1.88694 -3.83017,-3.92127 -6.45214,-4.88751 -1.44637,-0.93431 -2.98045,-1.51777 -4.72427,-1.26235 -5.760123,-0.0665 -11.520242,-0.13299 -17.280362,-0.19948 -1.744044,0.83531 -0.76335,2.94962 -1.013437,4.48621 0.04786,8.5387 -0.08425,17.10115 0.07581,25.62505 -0.107669,1.83225 1.826933,1.38042 3.08932,1.50514 5.448117,-0.22263 10.942845,0.15512 16.357859,-0.49386 z"
       id="path6" /></g></svg>
